<svg width="163" height="52" viewBox="0 0 163 52" fill="none" xmlns="http://www.w3.org/2000/svg">
<g clip-path="url(#clip0)">
<path d="M116.513 32.5589V27.648H118.699V38.7372H116.513V34.6817C115.837 34.9668 115.113 35.1094 114.342 35.1094C113.233 35.1094 112.309 34.7979 111.57 34.1748C110.852 33.5411 110.493 32.6856 110.493 31.6084V27.648H112.679V31.3233C112.679 31.8513 112.832 32.2685 113.138 32.5747C113.455 32.8705 113.872 33.0183 114.39 33.0183C115.14 33.0183 115.847 32.8652 116.513 32.5589Z" fill="#2962FF"/>
<path d="M130.26 38.7372H127.884L127.219 36.7411H122.799L122.133 38.7372H119.773L123.654 27.648H126.363L130.26 38.7372ZM125.017 30.1668L123.496 34.6975H126.537L125.017 30.1668Z" fill="#2962FF"/>
<path d="M137.927 26.6341H133.333V24.8599H137.927V26.6341ZM139.939 38.7372H137.753V31.9728L133 38.7372H131.337V27.648H133.523V34.4282L138.276 27.648H139.939V38.7372Z" fill="#2962FF"/>
<path d="M146.4 33.0342L150.661 38.7372H148.143L144.182 33.5411V38.7372H141.996V27.648H144.182V32.5431L147.984 27.648H150.503L146.4 33.0342Z" fill="#2962FF"/>
<path d="M161.526 38.7372H159.15L158.484 36.7411H154.064L153.399 38.7372H151.039L154.92 27.648H157.629L161.526 38.7372ZM156.282 30.1668L154.761 34.6975H157.803L156.282 30.1668Z" fill="#2962FF"/>
<path d="M50.5322 38.737H48.156L47.4906 36.7409H43.0708L42.4055 38.737H40.045L43.9262 27.6478H46.6352L50.5322 38.737ZM45.2886 30.1666L43.7678 34.6973H46.8094L45.2886 30.1666Z" fill="#304059"/>
<path d="M58.31 32.9864C59.2816 33.5462 59.7674 34.3911 59.7674 35.5211C59.7674 36.461 59.4347 37.232 58.7694 37.834C58.104 38.436 57.2855 38.737 56.3139 38.737H51.609V27.6478H55.9813C56.9212 27.6478 57.7186 27.9435 58.3733 28.5349C59.0281 29.1264 59.3555 29.8709 59.3555 30.7686C59.3555 31.6874 59.007 32.4267 58.31 32.9864ZM55.9813 29.6914H53.7951V32.131H55.9813C56.3192 32.131 56.5991 32.0148 56.8209 31.7825C57.0532 31.5501 57.1694 31.2597 57.1694 30.9112C57.1694 30.5627 57.0585 30.2722 56.8367 30.0399C56.6149 29.8076 56.3298 29.6914 55.9813 29.6914ZM53.7951 36.6934H56.3139C56.6836 36.6934 56.9898 36.5719 57.2327 36.329C57.4757 36.0756 57.5971 35.7587 57.5971 35.3785C57.5971 35.0089 57.4757 34.7026 57.2327 34.4597C56.9898 34.2063 56.6836 34.0795 56.3139 34.0795H53.7951V36.6934Z" fill="#304059"/>
<path d="M60.0674 27.6478H68.2259V29.7389H65.2318V38.737H63.0456V29.7389H60.0674V27.6478Z" fill="#304059"/>
<path d="M78.1427 37.2954C77.0233 38.4043 75.6609 38.9588 74.0556 38.9588C72.4503 38.9588 71.0879 38.4043 69.9684 37.2954C68.8595 36.1653 68.3051 34.7977 68.3051 33.1924C68.3051 31.5765 68.8595 30.2142 69.9684 29.1052C71.0879 27.9858 72.4503 27.426 74.0556 27.426C75.6609 27.426 77.0233 27.9858 78.1427 29.1052C79.2622 30.2142 79.822 31.5765 79.822 33.1924C79.822 34.8082 79.2622 36.1759 78.1427 37.2954ZM71.5051 35.8063C72.181 36.4822 73.0312 36.8201 74.0556 36.8201C75.08 36.8201 75.9302 36.4822 76.6061 35.8063C77.2926 35.1198 77.6358 34.2485 77.6358 33.1924C77.6358 32.1363 77.2926 31.265 76.6061 30.5785C75.9196 29.892 75.0695 29.5488 74.0556 29.5488C73.0417 29.5488 72.1916 29.892 71.5051 30.5785C70.8186 31.265 70.4754 32.1363 70.4754 33.1924C70.4754 34.2485 70.8186 35.1198 71.5051 35.8063Z" fill="#304059"/>
<path d="M89.3862 27.6478V36.6459H90.5744V40.8597H88.3882V38.737H82.2575V40.8597H80.0713V36.6459H81.1486C81.7611 35.801 82.0674 34.5495 82.0674 32.8914V27.6478H89.3862ZM83.4931 36.6459H87.2001V29.6914H84.2535V32.9231C84.2535 34.5389 84.0001 35.7799 83.4931 36.6459Z" fill="#304059"/>
<path d="M92.033 38.737V27.6478H94.2192V38.737H92.033Z" fill="#304059"/>
<path d="M104.874 27.6478H107.123V38.737H104.953V31.5449L101.832 36.6934H101.579L98.458 31.5607V38.737H96.2719V27.6478H98.5214L101.706 32.8914L104.874 27.6478Z" fill="#304059"/>
<path d="M92.2272 7.4193C98.348 6.70506 104.568 6.87042 110.619 8.16966C118.838 9.90244 126.658 13.6709 133.723 18.6886C133.966 18.8693 134.223 19.0805 134.531 19.0499C137.846 19.093 141.162 19.1958 144.472 19.4001C148.043 19.6446 151.62 20.0184 155.124 20.8647C157.096 21.358 159.067 21.9972 160.851 23.088C161.647 23.5938 162.437 24.169 163 25C162.367 24.7124 161.787 24.2927 161.132 24.0662C158.489 23.0755 155.721 22.6169 152.972 22.1903C146.56 21.2954 140.105 20.9133 133.654 20.6007C129.25 20.4047 124.846 20.2477 120.44 20.1421C118.069 20.0295 115.695 20.0754 113.326 19.9434C111.814 19.9364 110.301 19.8878 108.789 19.8809C106.051 19.7363 103.306 19.7989 100.567 19.6849C93.6534 19.4807 86.7281 19.3737 79.8371 18.6608C80.7311 18.4955 81.6411 18.5705 82.5425 18.5538C86.4669 18.508 90.3913 18.5288 94.3157 18.5566C97.4613 18.6817 100.612 18.6191 103.759 18.7317C106.457 18.8151 109.157 18.7956 111.854 18.9082C114.225 18.9262 116.595 18.9763 118.967 18.9763C121.704 19.0985 124.445 19.0138 127.184 19.0402C128.749 19.0374 130.315 19.0666 131.877 18.9582C131.215 18.419 130.459 18.0536 129.753 17.6006C125.694 15.1425 121.491 12.9553 117.091 11.4018C111.582 9.42999 105.72 8.64767 99.9656 9.36329C94.9877 9.93718 90.1313 11.4323 85.3987 13.2332C82.854 14.2337 80.3117 15.2453 77.816 16.3958C77.3917 16.5793 76.9772 16.8002 76.5333 16.9169C77.935 15.6066 79.4631 14.481 80.9801 13.3499C82.2175 12.4009 83.5432 11.6102 84.788 10.675C82.4125 11.0141 80.0677 11.588 77.7277 12.1535C72.4519 13.4639 67.2435 15.0994 62.0584 16.8099C61.9002 16.8586 61.7407 16.9072 61.5788 16.9322C61.3839 16.8919 61.1925 16.8433 61 16.796C61.054 16.6904 61.1079 16.5848 61.1631 16.4806C66.2906 14.3588 71.472 12.3898 76.7442 10.7806C81.8226 9.23406 86.9918 8.01542 92.2272 7.4193Z" fill="#2962FF" stroke="#2962FF" stroke-width="0.6"/>
<path d="M83.1394 1.22729C86.0564 0.707347 89.0065 0.336091 91.9721 0.220132C93.1352 0.289333 94.3031 0.272501 95.4672 0.218262C96.2484 0.279047 97.0345 0.314583 97.8138 0.398747C97.4222 0.446439 97.0268 0.415579 96.6332 0.41932C92.6464 0.402487 88.6887 1.04587 84.8302 1.97355C81.8121 2.7011 78.8485 3.62129 75.9286 4.65089C68.2862 7.37032 60.9568 10.8388 53.8227 14.6122C44.3954 19.6377 35.3014 25.2355 26.529 31.257C23.6159 33.3022 20.6843 35.3333 17.9345 37.5833C17.6857 37.8012 17.4467 38.0312 17.1707 38.2183C16.6305 35.6036 16.0795 32.9907 15.5548 30.3733C16.0261 29.9291 16.5508 29.5428 17.0998 29.1912C18.5175 28.199 20.0148 27.3209 21.4938 26.4185C26.1073 23.6785 30.8462 21.1386 35.6473 18.7175C43.5636 14.7244 51.6811 11.0922 59.9949 7.92954C67.5099 5.12034 75.2056 2.67211 83.1394 1.22729Z" fill="#2962FF"/>
<path d="M0 12.4108C0.08648 12.337 0.17296 12.2631 0.258468 12.1892C4.44546 12.9186 8.55278 14.1484 12.3608 15.9869C15.4245 17.4448 18.29 19.2926 20.8339 21.4903C21.1769 21.8222 21.5753 22.0953 21.9135 22.431C21.6336 22.6975 21.2857 22.8799 20.9593 23.0875C19.9166 23.6991 18.9177 24.378 17.8693 24.9812C17.6818 25.1 17.5069 24.9372 17.3961 24.8026C16.232 23.4887 15.204 22.0607 13.9447 20.8254C11.2852 18.0227 8.03875 15.7465 4.46975 14.1334C3.02972 13.4461 1.51097 12.9327 0 12.4108Z" fill="#304059"/>
</g>
<defs>
<clipPath id="clip0">
<rect width="163" height="52" fill="white"/>
</clipPath>
</defs>
</svg>
